<svg width="1920" height="1080" viewBox="0 0 1920 1080" fill="none" xmlns="http://www.w3.org/2000/svg">
  <defs>
    <linearGradient id="room" x1="960" y1="0" x2="960" y2="1080" gradientUnits="userSpaceOnUse">
      <stop offset="0" stop-color="#120D10"/>
      <stop offset="0.36" stop-color="#191217"/>
      <stop offset="0.74" stop-color="#100C10"/>
      <stop offset="1" stop-color="#060508"/>
    </linearGradient>
    <linearGradient id="wallGlow" x1="960" y1="120" x2="960" y2="760" gradientUnits="userSpaceOnUse">
      <stop offset="0" stop-color="#4A2B1D" stop-opacity="0.36"/>
      <stop offset="0.55" stop-color="#281A17" stop-opacity="0.16"/>
      <stop offset="1" stop-color="#09080B" stop-opacity="0"/>
    </linearGradient>
    <linearGradient id="counterFront" x1="960" y1="720" x2="960" y2="1080" gradientUnits="userSpaceOnUse">
      <stop offset="0" stop-color="#201519"/>
      <stop offset="0.38" stop-color="#120D11"/>
      <stop offset="1" stop-color="#050508"/>
    </linearGradient>
    <linearGradient id="counterTop" x1="0" y1="0" x2="0" y2="1">
      <stop offset="0" stop-color="#7A4B31"/>
      <stop offset="0.4" stop-color="#553424"/>
      <stop offset="1" stop-color="#2A1A14"/>
    </linearGradient>
    <linearGradient id="wood" x1="0" y1="0" x2="1" y2="1">
      <stop offset="0" stop-color="#3A241B"/>
      <stop offset="1" stop-color="#1A1112"/>
    </linearGradient>
    <linearGradient id="frame" x1="0" y1="0" x2="1" y2="1">
      <stop offset="0" stop-color="#7D5537"/>
      <stop offset="1" stop-color="#372116"/>
    </linearGradient>
    <linearGradient id="chalkboard" x1="0" y1="0" x2="0" y2="1">
      <stop offset="0" stop-color="#18181C"/>
      <stop offset="1" stop-color="#0F1014"/>
    </linearGradient>
    <linearGradient id="glassAmber" x1="0" y1="0" x2="0" y2="1">
      <stop offset="0" stop-color="#FFCF6E"/>
      <stop offset="0.46" stop-color="#DD9136"/>
      <stop offset="1" stop-color="#7B3618"/>
    </linearGradient>
    <linearGradient id="glassRuby" x1="0" y1="0" x2="0" y2="1">
      <stop offset="0" stop-color="#E7A37A"/>
      <stop offset="0.42" stop-color="#A64A30"/>
      <stop offset="1" stop-color="#481719"/>
    </linearGradient>
    <linearGradient id="glassPale" x1="0" y1="0" x2="0" y2="1">
      <stop offset="0" stop-color="#FFF1AA"/>
      <stop offset="0.44" stop-color="#E8B346"/>
      <stop offset="1" stop-color="#93611C"/>
    </linearGradient>
    <radialGradient id="lampLeft" cx="0" cy="0" r="1" gradientUnits="userSpaceOnUse" gradientTransform="translate(350 150) rotate(90) scale(230 230)">
      <stop stop-color="#FFD488" stop-opacity="0.5"/>
      <stop offset="0.46" stop-color="#F1A451" stop-opacity="0.14"/>
      <stop offset="1" stop-color="#120D10" stop-opacity="0"/>
    </radialGradient>
    <radialGradient id="lampCenter" cx="0" cy="0" r="1" gradientUnits="userSpaceOnUse" gradientTransform="translate(960 126) rotate(90) scale(300 320)">
      <stop stop-color="#FFE5A8" stop-opacity="0.44"/>
      <stop offset="0.48" stop-color="#DB9751" stop-opacity="0.16"/>
      <stop offset="1" stop-color="#120D10" stop-opacity="0"/>
    </radialGradient>
    <radialGradient id="lampRight" cx="0" cy="0" r="1" gradientUnits="userSpaceOnUse" gradientTransform="translate(1560 156) rotate(90) scale(230 230)">
      <stop stop-color="#FFD488" stop-opacity="0.48"/>
      <stop offset="0.46" stop-color="#F1A451" stop-opacity="0.12"/>
      <stop offset="1" stop-color="#120D10" stop-opacity="0"/>
    </radialGradient>
    <filter id="blur8" x="-20%" y="-20%" width="140%" height="140%"><feGaussianBlur stdDeviation="8"/></filter>
    <filter id="grain">
      <feTurbulence type="fractalNoise" baseFrequency="0.82" numOctaves="2" seed="17" stitchTiles="stitch"/>
      <feColorMatrix type="saturate" values="0"/>
      <feComponentTransfer><feFuncA type="table" tableValues="0 0.022"/></feComponentTransfer>
    </filter>
  </defs>

  <rect width="1920" height="1080" fill="url(#room)"/>
  <rect width="1920" height="1080" fill="url(#lampLeft)"/>
  <rect width="1920" height="1080" fill="url(#lampCenter)"/>
  <rect width="1920" height="1080" fill="url(#lampRight)"/>
  <rect width="1920" height="1080" fill="url(#wallGlow)"/>

  <g opacity="0.88">
    <rect x="212" y="176" width="1496" height="374" rx="34" fill="#0E0E12"/>
    <rect x="242" y="204" width="1436" height="320" rx="24" fill="#111116" stroke="rgba(255,229,188,0.05)" stroke-width="2"/>

    <rect x="274" y="230" width="310" height="92" rx="18" fill="url(#chalkboard)" stroke="rgba(255,228,184,0.05)" stroke-width="2"/>
    <rect x="606" y="230" width="324" height="92" rx="18" fill="url(#chalkboard)" stroke="rgba(255,228,184,0.05)" stroke-width="2"/>
    <rect x="952" y="230" width="314" height="92" rx="18" fill="url(#chalkboard)" stroke="rgba(255,228,184,0.05)" stroke-width="2"/>
    <rect x="1288" y="230" width="356" height="92" rx="18" fill="url(#chalkboard)" stroke="rgba(255,228,184,0.05)" stroke-width="2"/>

    <rect x="274" y="342" width="1370" height="58" rx="18" fill="#16141A"/>
    <rect x="274" y="420" width="1370" height="76" rx="20" fill="#131218"/>
  </g>

  <g opacity="0.56">
    <rect x="292" y="250" width="274" height="10" rx="5" fill="#2A252B"/>
    <rect x="292" y="270" width="230" height="8" rx="4" fill="#252128"/>
    <rect x="292" y="286" width="250" height="8" rx="4" fill="#252128"/>
    <rect x="292" y="302" width="212" height="8" rx="4" fill="#252128"/>

    <rect x="626" y="250" width="286" height="10" rx="5" fill="#2A252B"/>
    <rect x="626" y="270" width="236" height="8" rx="4" fill="#252128"/>
    <rect x="626" y="286" width="268" height="8" rx="4" fill="#252128"/>
    <rect x="626" y="302" width="224" height="8" rx="4" fill="#252128"/>

    <rect x="972" y="250" width="274" height="10" rx="5" fill="#2A252B"/>
    <rect x="972" y="270" width="220" height="8" rx="4" fill="#252128"/>
    <rect x="972" y="286" width="244" height="8" rx="4" fill="#252128"/>
    <rect x="972" y="302" width="210" height="8" rx="4" fill="#252128"/>

    <rect x="1308" y="250" width="316" height="10" rx="5" fill="#2A252B"/>
    <rect x="1308" y="270" width="274" height="8" rx="4" fill="#252128"/>
    <rect x="1308" y="286" width="290" height="8" rx="4" fill="#252128"/>
    <rect x="1308" y="302" width="248" height="8" rx="4" fill="#252128"/>
  </g>

  <g opacity="0.48">
    <rect x="304" y="358" width="128" height="26" rx="10" fill="#1F1C21"/>
    <rect x="452" y="358" width="112" height="26" rx="10" fill="#1F1C21"/>
    <rect x="584" y="358" width="136" height="26" rx="10" fill="#1F1C21"/>
    <rect x="740" y="358" width="122" height="26" rx="10" fill="#1F1C21"/>
    <rect x="882" y="358" width="130" height="26" rx="10" fill="#1F1C21"/>
    <rect x="1032" y="358" width="118" height="26" rx="10" fill="#1F1C21"/>
    <rect x="1170" y="358" width="138" height="26" rx="10" fill="#1F1C21"/>
    <rect x="1328" y="358" width="124" height="26" rx="10" fill="#1F1C21"/>
    <rect x="1472" y="358" width="140" height="26" rx="10" fill="#1F1C21"/>
  </g>

  <g opacity="0.78">
    <rect x="318" y="430" width="108" height="48" rx="16" fill="#1B161A"/>
    <rect x="446" y="430" width="108" height="48" rx="16" fill="#1B161A"/>
    <rect x="574" y="430" width="108" height="48" rx="16" fill="#1B161A"/>
    <rect x="720" y="430" width="120" height="48" rx="16" fill="#1B161A"/>
    <rect x="860" y="430" width="120" height="48" rx="16" fill="#1B161A"/>
    <rect x="1000" y="430" width="120" height="48" rx="16" fill="#1B161A"/>
    <rect x="1140" y="430" width="120" height="48" rx="16" fill="#1B161A"/>
    <rect x="1280" y="430" width="120" height="48" rx="16" fill="#1B161A"/>
    <rect x="1420" y="430" width="120" height="48" rx="16" fill="#1B161A"/>
  </g>

  

  <g opacity="0.86">
    <path d="M0 714C176 702 350 708 522 720C710 734 860 760 1020 758C1190 756 1336 728 1524 714C1680 702 1810 702 1920 712V1080H0V714Z" fill="url(#counterFront)"/>
    <path d="M0 726C214 714 390 724 562 740C752 758 894 780 1038 778C1206 776 1360 746 1548 728C1704 714 1818 714 1920 722V760H0V726Z" fill="url(#counterTop)"/>
    <rect x="82" y="720" width="1756" height="12" rx="6" fill="rgba(255,224,170,0.18)"/>
    <rect x="0" y="758" width="1920" height="322" fill="rgba(0,0,0,0.28)"/>
  </g>

  <g opacity="0.44">
    <rect x="104" y="286" width="112" height="176" rx="12" fill="#181419" stroke="rgba(255,228,184,0.09)" stroke-width="2"/>
    <rect x="1706" y="266" width="118" height="186" rx="12" fill="#181419" stroke="rgba(255,228,184,0.09)" stroke-width="2"/>
    <rect x="126" y="310" width="68" height="10" rx="5" fill="#2D272C"/>
    <rect x="126" y="330" width="54" height="8" rx="4" fill="#2A2428"/>
    <rect x="126" y="348" width="72" height="8" rx="4" fill="#2A2428"/>
    <rect x="1730" y="290" width="72" height="10" rx="5" fill="#2D272C"/>
    <rect x="1730" y="310" width="58" height="8" rx="4" fill="#2A2428"/>
    <rect x="1730" y="328" width="80" height="8" rx="4" fill="#2A2428"/>
  </g>

  <g opacity="0.52">
    <ellipse cx="316" cy="912" rx="156" ry="24" fill="#130E12"/>
    <ellipse cx="1616" cy="920" rx="168" ry="26" fill="#130E12"/>
    <path d="M208 1080V876C208 830 244 794 290 794H364C410 794 446 830 446 876V1080" fill="#0B0A0D"/>
    <path d="M1482 1080V876C1482 830 1518 794 1564 794H1638C1684 794 1720 830 1720 876V1080" fill="#0B0A0D"/>
    <rect x="196" y="784" width="260" height="18" rx="9" fill="#171216"/>
    <rect x="1470" y="784" width="262" height="18" rx="9" fill="#171216"/>
  </g>

  <g opacity="0.3">
    <rect width="1920" height="1080" filter="url(#grain)"/>
  </g>
</svg>
