<svg width="1920" height="1080" viewBox="0 0 1920 1080" fill="none" xmlns="http://www.w3.org/2000/svg">
  <defs>
    <linearGradient id="room" x1="960" y1="0" x2="960" y2="1080" gradientUnits="userSpaceOnUse">
      <stop offset="0" stop-color="#120F14"/>
      <stop offset="0.34" stop-color="#17131A"/>
      <stop offset="0.68" stop-color="#0F0D12"/>
      <stop offset="1" stop-color="#09080C"/>
    </linearGradient>
    <linearGradient id="wallGlow" x1="960" y1="180" x2="960" y2="740" gradientUnits="userSpaceOnUse">
      <stop offset="0" stop-color="#36221A" stop-opacity="0.58"/>
      <stop offset="0.45" stop-color="#241A17" stop-opacity="0.2"/>
      <stop offset="1" stop-color="#0E0D12" stop-opacity="0"/>
    </linearGradient>
    <linearGradient id="counter" x1="960" y1="736" x2="960" y2="1080" gradientUnits="userSpaceOnUse">
      <stop offset="0" stop-color="#140F12"/>
      <stop offset="0.48" stop-color="#09080B"/>
      <stop offset="1" stop-color="#040306"/>
    </linearGradient>
    <linearGradient id="shelfWood" x1="0" y1="0" x2="1" y2="1">
      <stop offset="0" stop-color="#2A1E18"/>
      <stop offset="1" stop-color="#140F10"/>
    </linearGradient>
    <linearGradient id="tapMetal" x1="0" y1="0" x2="0" y2="1">
      <stop offset="0" stop-color="#ECE5D9"/>
      <stop offset="0.36" stop-color="#BFAE95"/>
      <stop offset="1" stop-color="#655247"/>
    </linearGradient>
    <linearGradient id="beerAmber" x1="0" y1="0" x2="0" y2="1">
      <stop offset="0" stop-color="#FFD06B"/>
      <stop offset="0.34" stop-color="#F19B35"/>
      <stop offset="1" stop-color="#7F3416"/>
    </linearGradient>
    <linearGradient id="beerRuby" x1="0" y1="0" x2="0" y2="1">
      <stop offset="0" stop-color="#E48E6C"/>
      <stop offset="0.4" stop-color="#A2412B"/>
      <stop offset="1" stop-color="#451417"/>
    </linearGradient>
    <linearGradient id="beerPale" x1="0" y1="0" x2="0" y2="1">
      <stop offset="0" stop-color="#FFF1AF"/>
      <stop offset="0.44" stop-color="#E7B445"/>
      <stop offset="1" stop-color="#93611D"/>
    </linearGradient>
    <radialGradient id="lampGlowLeft" cx="0" cy="0" r="1" gradientUnits="userSpaceOnUse" gradientTransform="translate(430 170) rotate(90) scale(220 220)">
      <stop stop-color="#FFCA73" stop-opacity="0.58"/>
      <stop offset="0.5" stop-color="#FF9E47" stop-opacity="0.18"/>
      <stop offset="1" stop-color="#100F13" stop-opacity="0"/>
    </radialGradient>
    <radialGradient id="lampGlowCenter" cx="0" cy="0" r="1" gradientUnits="userSpaceOnUse" gradientTransform="translate(960 150) rotate(90) scale(250 260)">
      <stop stop-color="#FFE4A5" stop-opacity="0.52"/>
      <stop offset="0.46" stop-color="#E39A51" stop-opacity="0.18"/>
      <stop offset="1" stop-color="#121015" stop-opacity="0"/>
    </radialGradient>
    <radialGradient id="lampGlowRight" cx="0" cy="0" r="1" gradientUnits="userSpaceOnUse" gradientTransform="translate(1496 170) rotate(90) scale(220 220)">
      <stop stop-color="#FFD87F" stop-opacity="0.56"/>
      <stop offset="0.5" stop-color="#FFB35C" stop-opacity="0.16"/>
      <stop offset="1" stop-color="#100F13" stop-opacity="0"/>
    </radialGradient>
    <radialGradient id="neonTeal" cx="0" cy="0" r="1" gradientUnits="userSpaceOnUse" gradientTransform="translate(1510 520) rotate(90) scale(190 260)">
      <stop stop-color="#5BE6D4" stop-opacity="0.18"/>
      <stop offset="1" stop-color="#5BE6D4" stop-opacity="0"/>
    </radialGradient>
    <radialGradient id="neonAmber" cx="0" cy="0" r="1" gradientUnits="userSpaceOnUse" gradientTransform="translate(540 560) rotate(90) scale(240 300)">
      <stop stop-color="#FFAE56" stop-opacity="0.16"/>
      <stop offset="1" stop-color="#FFAE56" stop-opacity="0"/>
    </radialGradient>
    <filter id="blur24" x="-20%" y="-20%" width="140%" height="140%"><feGaussianBlur stdDeviation="24"/></filter>
    <filter id="blur10" x="-20%" y="-20%" width="140%" height="140%"><feGaussianBlur stdDeviation="10"/></filter>
    <filter id="grain">
      <feTurbulence type="fractalNoise" baseFrequency="0.8" numOctaves="2" seed="11" stitchTiles="stitch"/>
      <feColorMatrix type="saturate" values="0"/>
      <feComponentTransfer><feFuncA type="table" tableValues="0 0.03"/></feComponentTransfer>
    </filter>
  </defs>

  <rect width="1920" height="1080" fill="url(#room)"/>
  <rect width="1920" height="1080" fill="url(#lampGlowLeft)"/>
  <rect width="1920" height="1080" fill="url(#lampGlowCenter)"/>
  <rect width="1920" height="1080" fill="url(#lampGlowRight)"/>
  <rect width="1920" height="1080" fill="url(#neonTeal)"/>
  <rect width="1920" height="1080" fill="url(#neonAmber)"/>
  <rect x="0" y="0" width="1920" height="720" fill="url(#wallGlow)"/>

  <g opacity="0.58">
    <rect x="210" y="216" width="1500" height="18" rx="9" fill="url(#shelfWood)"/>
    <rect x="160" y="382" width="1600" height="20" rx="10" fill="url(#shelfWood)"/>
    <rect x="120" y="552" width="1680" height="22" rx="11" fill="url(#shelfWood)"/>
  </g>

  <g opacity="0.52" filter="url(#blur10)">
    <rect x="240" y="228" width="54" height="146" rx="16" fill="#FFBB5D"/>
    <rect x="318" y="242" width="44" height="130" rx="14" fill="#69D7D5"/>
    <rect x="390" y="208" width="66" height="166" rx="18" fill="#E18E60"/>
    <rect x="1430" y="226" width="52" height="144" rx="16" fill="#5CDACF"/>
    <rect x="1510" y="242" width="44" height="128" rx="14" fill="#FFD375"/>
    <rect x="1582" y="210" width="62" height="160" rx="18" fill="#B5603E"/>
  </g>

  <g opacity="0.76">
    <g fill="#F8E3B0">
      <rect x="262" y="252" width="8" height="52" rx="4"/>
      <rect x="335" y="262" width="6" height="42" rx="3"/>
      <rect x="418" y="238" width="8" height="62" rx="4"/>
      <rect x="1452" y="252" width="8" height="50" rx="4"/>
      <rect x="1528" y="264" width="6" height="40" rx="3"/>
      <rect x="1604" y="238" width="8" height="60" rx="4"/>
    </g>
  </g>

  <g>
    <rect x="0" y="736" width="1920" height="344" fill="url(#counter)"/>
    <path d="M0 736C202 706 340 714 484 726C676 742 812 798 980 800C1146 802 1300 748 1492 730C1630 716 1762 714 1920 736V1080H0V736Z" fill="#0B090C" opacity="0.82"/>
    <path d="M0 780C222 766 410 780 590 804C768 827 886 842 1030 838C1188 833 1320 794 1496 784C1668 774 1800 786 1920 802" stroke="rgba(255,244,220,0.08)" stroke-width="2"/>
    <rect x="108" y="712" width="1704" height="18" rx="9" fill="rgba(255,214,154,0.12)" filter="url(#blur10)"/>
  </g>

  <g opacity="0.88">
    <path d="M346 116V214" stroke="#4E413D" stroke-width="6"/>
    <path d="M960 96V194" stroke="#4E413D" stroke-width="6"/>
    <path d="M1572 116V214" stroke="#4E413D" stroke-width="6"/>
    <path d="M300 116C300 90 320 70 346 70C372 70 392 90 392 116V126H300V116Z" fill="#20181A"/>
    <path d="M904 96C904 64 930 40 960 40C990 40 1016 64 1016 96V108H904V96Z" fill="#20181A"/>
    <path d="M1524 116C1524 90 1546 70 1572 70C1598 70 1620 90 1620 116V126H1524V116Z" fill="#20181A"/>
    <ellipse cx="346" cy="134" rx="50" ry="14" fill="#F4C371"/>
    <ellipse cx="960" cy="118" rx="62" ry="18" fill="#F8D288"/>
    <ellipse cx="1572" cy="134" rx="50" ry="14" fill="#F4C371"/>
  </g>

  <g opacity="0.62">
    <path d="M188 566C276 470 410 432 544 432C696 432 776 486 866 558" stroke="#6DE2D2" stroke-width="8" stroke-linecap="round"/>
    <path d="M1050 560C1120 490 1214 452 1338 452C1474 452 1586 508 1682 604" stroke="#FFB460" stroke-width="8" stroke-linecap="round"/>
  </g>

  <g opacity="0.92">
    <path d="M566 400V616" stroke="url(#tapMetal)" stroke-width="26" stroke-linecap="round"/>
    <path d="M708 364V616" stroke="url(#tapMetal)" stroke-width="28" stroke-linecap="round"/>
    <path d="M856 338V616" stroke="url(#tapMetal)" stroke-width="30" stroke-linecap="round"/>
    <path d="M1022 344V616" stroke="url(#tapMetal)" stroke-width="30" stroke-linecap="round"/>
    <path d="M1184 372V616" stroke="url(#tapMetal)" stroke-width="28" stroke-linecap="round"/>
    <path d="M1334 404V616" stroke="url(#tapMetal)" stroke-width="26" stroke-linecap="round"/>

    <rect x="520" y="356" width="92" height="76" rx="30" fill="#22181A"/>
    <rect x="658" y="320" width="100" height="88" rx="34" fill="#231919"/>
    <rect x="802" y="292" width="108" height="96" rx="36" fill="#231816"/>
    <rect x="968" y="298" width="108" height="96" rx="36" fill="#1E1818"/>
    <rect x="1134" y="326" width="100" height="88" rx="34" fill="#1C191A"/>
    <rect x="1286" y="360" width="92" height="76" rx="30" fill="#1D1919"/>

    <rect x="536" y="372" width="60" height="42" rx="16" fill="url(#beerPale)"/>
    <rect x="678" y="338" width="60" height="46" rx="18" fill="url(#beerAmber)"/>
    <rect x="824" y="308" width="64" height="50" rx="20" fill="url(#beerRuby)"/>
    <rect x="990" y="314" width="64" height="50" rx="20" fill="url(#beerPale)"/>
    <rect x="1154" y="344" width="60" height="46" rx="18" fill="url(#beerAmber)"/>
    <rect x="1302" y="376" width="60" height="42" rx="16" fill="url(#beerRuby)"/>

    <ellipse cx="566" cy="418" rx="24" ry="9" fill="#FFF4DA"/>
    <ellipse cx="708" cy="388" rx="26" ry="9" fill="#FFF4DA"/>
    <ellipse cx="856" cy="358" rx="28" ry="10" fill="#FFF4DA"/>
    <ellipse cx="1022" cy="364" rx="28" ry="10" fill="#FFF4DA"/>
    <ellipse cx="1184" cy="392" rx="26" ry="9" fill="#FFF4DA"/>
    <ellipse cx="1334" cy="420" rx="24" ry="9" fill="#FFF4DA"/>
  </g>

  <g opacity="0.3" filter="url(#blur24)">
    <ellipse cx="960" cy="632" rx="640" ry="82" fill="#1B7F78"/>
    <ellipse cx="770" cy="618" rx="260" ry="52" fill="#FFAC53"/>
    <ellipse cx="1160" cy="626" rx="280" ry="56" fill="#FFB867"/>
  </g>

  <g opacity="0.7">
    <rect x="238" y="570" width="66" height="136" rx="18" fill="#130F12"/>
    <rect x="1618" y="570" width="64" height="136" rx="18" fill="#120F12"/>
    <path d="M292 706C292 654 274 630 256 630C238 630 220 654 220 706" stroke="#2D2324" stroke-width="12" stroke-linecap="round"/>
    <path d="M1668 706C1668 654 1650 630 1634 630C1618 630 1600 654 1600 706" stroke="#2D2324" stroke-width="12" stroke-linecap="round"/>
  </g>

  <g opacity="0.24">
    <rect width="1920" height="1080" filter="url(#grain)"/>
  </g>
</svg>
