<svg width="1920" height="1080" viewBox="0 0 1920 1080" fill="none" xmlns="http://www.w3.org/2000/svg">
  <defs>
    <linearGradient id="sky" x1="960" y1="0" x2="960" y2="1080" gradientUnits="userSpaceOnUse">
      <stop offset="0" stop-color="#080914"/>
      <stop offset="0.38" stop-color="#101224"/>
      <stop offset="0.72" stop-color="#171223"/>
      <stop offset="1" stop-color="#08070D"/>
    </linearGradient>
    <linearGradient id="water" x1="960" y1="730" x2="960" y2="1080" gradientUnits="userSpaceOnUse">
      <stop offset="0" stop-color="#090A11"/>
      <stop offset="0.48" stop-color="#140F19"/>
      <stop offset="1" stop-color="#050509"/>
    </linearGradient>
    <radialGradient id="moonGlow" cx="0" cy="0" r="1" gradientUnits="userSpaceOnUse" gradientTransform="translate(984 160) rotate(90) scale(180 180)">
      <stop stop-color="#FFF1C9" stop-opacity="0.32"/>
      <stop offset="0.38" stop-color="#C3B3FF" stop-opacity="0.12"/>
      <stop offset="1" stop-color="#080914" stop-opacity="0"/>
    </radialGradient>
    <radialGradient id="amberGlow" cx="0" cy="0" r="1" gradientUnits="userSpaceOnUse" gradientTransform="translate(385 610) rotate(90) scale(170 240)">
      <stop stop-color="#FFAE49" stop-opacity="0.3"/>
      <stop offset="1" stop-color="#FFAE49" stop-opacity="0"/>
    </radialGradient>
    <radialGradient id="cyanGlow" cx="0" cy="0" r="1" gradientUnits="userSpaceOnUse" gradientTransform="translate(1480 580) rotate(90) scale(170 260)">
      <stop stop-color="#65D9FF" stop-opacity="0.28"/>
      <stop offset="1" stop-color="#65D9FF" stop-opacity="0"/>
    </radialGradient>
    <radialGradient id="roseGlow" cx="0" cy="0" r="1" gradientUnits="userSpaceOnUse" gradientTransform="translate(1180 660) rotate(90) scale(190 290)">
      <stop stop-color="#FF6F87" stop-opacity="0.18"/>
      <stop offset="1" stop-color="#FF6F87" stop-opacity="0"/>
    </radialGradient>
    <linearGradient id="towerLight" x1="0" y1="0" x2="0" y2="1">
      <stop offset="0" stop-color="#FFF9F2"/>
      <stop offset="1" stop-color="#A6B9D7"/>
    </linearGradient>
    <linearGradient id="amberTower" x1="0" y1="0" x2="0" y2="1">
      <stop offset="0" stop-color="#FFD37B"/>
      <stop offset="1" stop-color="#A44E1F"/>
    </linearGradient>
    <filter id="blur32" x="-20%" y="-20%" width="140%" height="140%">
      <feGaussianBlur stdDeviation="32"/>
    </filter>
    <filter id="blur12" x="-20%" y="-20%" width="140%" height="140%">
      <feGaussianBlur stdDeviation="12"/>
    </filter>
    <filter id="grain">
      <feTurbulence type="fractalNoise" baseFrequency="0.85" numOctaves="2" seed="9" stitchTiles="stitch"/>
      <feColorMatrix type="saturate" values="0"/>
      <feComponentTransfer>
        <feFuncA type="table" tableValues="0 0.03"/>
      </feComponentTransfer>
    </filter>
  </defs>

  <rect width="1920" height="1080" fill="url(#sky)"/>
  <rect width="1920" height="1080" fill="url(#moonGlow)"/>
  <rect width="1920" height="1080" fill="url(#amberGlow)"/>
  <rect width="1920" height="1080" fill="url(#cyanGlow)"/>
  <rect width="1920" height="1080" fill="url(#roseGlow)"/>

  <g opacity="0.72">
    <circle cx="153" cy="166" r="1.4" fill="#F8F4E8"/>
    <circle cx="312" cy="102" r="1.1" fill="#C1D4FF"/>
    <circle cx="432" cy="186" r="1.3" fill="#F8F4E8"/>
    <circle cx="512" cy="92" r="1" fill="#F8F4E8"/>
    <circle cx="610" cy="124" r="1.5" fill="#FFE3A6"/>
    <circle cx="708" cy="78" r="1.1" fill="#F8F4E8"/>
    <circle cx="804" cy="196" r="1.2" fill="#B7DEFF"/>
    <circle cx="1110" cy="86" r="1.1" fill="#F8F4E8"/>
    <circle cx="1226" cy="154" r="1.4" fill="#F8F4E8"/>
    <circle cx="1324" cy="98" r="1" fill="#D9C8FF"/>
    <circle cx="1486" cy="142" r="1.1" fill="#F8F4E8"/>
    <circle cx="1575" cy="188" r="1.4" fill="#FFE3A6"/>
    <circle cx="1718" cy="106" r="1.2" fill="#F8F4E8"/>
  </g>

  <path d="M0 616C172 596 274 642 403 628C545 613 638 553 771 549C918 544 1004 589 1124 593C1303 599 1404 518 1554 532C1697 545 1775 603 1920 584V768H0V616Z" fill="#0A0D15"/>
  <path d="M0 652C188 621 319 661 427 655C576 646 697 591 810 598C960 607 1097 661 1257 654C1410 647 1530 604 1667 616C1773 625 1844 664 1920 658V779H0V652Z" fill="#111018" opacity="0.7"/>

  <g filter="url(#blur12)" opacity="0.42">
    <ellipse cx="600" cy="565" rx="210" ry="44" fill="#FFB34C"/>
    <ellipse cx="1460" cy="602" rx="250" ry="58" fill="#68E1FF"/>
  </g>

  <g>
    <rect x="72" y="508" width="56" height="156" fill="#171A26"/>
    <rect x="145" y="470" width="42" height="194" fill="#151A25"/>
    <rect x="196" y="526" width="82" height="138" fill="#181927"/>
    <rect x="292" y="438" width="94" height="226" fill="#141724"/>
    <rect x="402" y="392" width="116" height="272" fill="#121620"/>
    <rect x="540" y="286" width="76" height="378" fill="#0F1520"/>
    <rect x="628" y="338" width="64" height="326" fill="#131927"/>
    <rect x="706" y="482" width="58" height="182" fill="#151924"/>
    <rect x="777" y="370" width="98" height="294" fill="#111521"/>
    <rect x="890" y="194" width="128" height="470" fill="#0D111A"/>
    <rect x="1042" y="350" width="74" height="314" fill="#121620"/>
    <rect x="1128" y="316" width="120" height="348" fill="#111521"/>
    <rect x="1262" y="420" width="90" height="244" fill="#12141D"/>
    <rect x="1368" y="370" width="68" height="294" fill="#11131B"/>
    <rect x="1450" y="280" width="110" height="384" fill="#10131B"/>
    <rect x="1575" y="430" width="86" height="234" fill="#121622"/>
    <rect x="1678" y="360" width="72" height="304" fill="#11141C"/>
    <rect x="1762" y="324" width="108" height="340" fill="#12151D"/>
  </g>

  <g opacity="0.95">
    <rect x="931" y="177" width="52" height="487" rx="10" fill="url(#towerLight)"/>
    <rect x="952" y="176" width="9" height="489" fill="#F2FBFF" opacity="0.8"/>
    <path d="M943 158L970 142L993 158V176H943V158Z" fill="#FFF7EA"/>
    <rect x="1458" y="260" width="94" height="404" rx="18" fill="#1A2030"/>
    <rect x="1492" y="244" width="24" height="420" fill="url(#towerLight)"/>
    <path d="M1498 212L1504 182L1510 212H1498Z" fill="#FFF6DD"/>
    <rect x="548" y="274" width="58" height="390" rx="8" fill="url(#amberTower)"/>
    <rect x="574" y="288" width="8" height="365" fill="#FFEAB5" opacity="0.9"/>
  </g>

  <g opacity="0.86">
    <g fill="#FFF7E4">
      <rect x="305" y="462" width="8" height="8"/>
      <rect x="321" y="462" width="8" height="8"/>
      <rect x="337" y="462" width="8" height="8"/>
      <rect x="353" y="462" width="8" height="8"/>
      <rect x="305" y="480" width="8" height="8"/>
      <rect x="337" y="480" width="8" height="8"/>
      <rect x="353" y="480" width="8" height="8"/>
      <rect x="421" y="420" width="10" height="10"/>
      <rect x="441" y="420" width="10" height="10"/>
      <rect x="461" y="420" width="10" height="10"/>
      <rect x="481" y="420" width="10" height="10"/>
      <rect x="421" y="444" width="10" height="10"/>
      <rect x="441" y="444" width="10" height="10"/>
      <rect x="461" y="444" width="10" height="10"/>
      <rect x="481" y="444" width="10" height="10"/>
      <rect x="566" y="320" width="8" height="14"/>
      <rect x="587" y="320" width="8" height="14"/>
      <rect x="566" y="350" width="8" height="14"/>
      <rect x="587" y="350" width="8" height="14"/>
      <rect x="805" y="404" width="10" height="10"/>
      <rect x="828" y="404" width="10" height="10"/>
      <rect x="851" y="404" width="10" height="10"/>
      <rect x="805" y="430" width="10" height="10"/>
      <rect x="828" y="430" width="10" height="10"/>
      <rect x="851" y="430" width="10" height="10"/>
      <rect x="939" y="240" width="10" height="18"/>
      <rect x="966" y="240" width="10" height="18"/>
      <rect x="939" y="275" width="10" height="18"/>
      <rect x="966" y="275" width="10" height="18"/>
      <rect x="939" y="310" width="10" height="18"/>
      <rect x="966" y="310" width="10" height="18"/>
      <rect x="939" y="345" width="10" height="18"/>
      <rect x="966" y="345" width="10" height="18"/>
      <rect x="939" y="380" width="10" height="18"/>
      <rect x="966" y="380" width="10" height="18"/>
      <rect x="939" y="415" width="10" height="18"/>
      <rect x="966" y="415" width="10" height="18"/>
      <rect x="939" y="450" width="10" height="18"/>
      <rect x="966" y="450" width="10" height="18"/>
      <rect x="939" y="485" width="10" height="18"/>
      <rect x="966" y="485" width="10" height="18"/>
      <rect x="939" y="520" width="10" height="18"/>
      <rect x="966" y="520" width="10" height="18"/>
      <rect x="939" y="555" width="10" height="18"/>
      <rect x="966" y="555" width="10" height="18"/>
      <rect x="1057" y="386" width="8" height="10"/>
      <rect x="1073" y="386" width="8" height="10"/>
      <rect x="1089" y="386" width="8" height="10"/>
      <rect x="1148" y="354" width="11" height="10"/>
      <rect x="1172" y="354" width="11" height="10"/>
      <rect x="1196" y="354" width="11" height="10"/>
      <rect x="1148" y="378" width="11" height="10"/>
      <rect x="1172" y="378" width="11" height="10"/>
      <rect x="1196" y="378" width="11" height="10"/>
      <rect x="1286" y="446" width="9" height="9"/>
      <rect x="1305" y="446" width="9" height="9"/>
      <rect x="1324" y="446" width="9" height="9"/>
      <rect x="1385" y="398" width="8" height="10"/>
      <rect x="1402" y="398" width="8" height="10"/>
      <rect x="1478" y="314" width="10" height="16"/>
      <rect x="1500" y="314" width="10" height="16"/>
      <rect x="1522" y="314" width="10" height="16"/>
      <rect x="1478" y="348" width="10" height="16"/>
      <rect x="1500" y="348" width="10" height="16"/>
      <rect x="1522" y="348" width="10" height="16"/>
      <rect x="1594" y="456" width="9" height="10"/>
      <rect x="1614" y="456" width="9" height="10"/>
      <rect x="1699" y="392" width="9" height="10"/>
      <rect x="1718" y="392" width="9" height="10"/>
      <rect x="1790" y="356" width="10" height="12"/>
      <rect x="1812" y="356" width="10" height="12"/>
      <rect x="1834" y="356" width="10" height="12"/>
    </g>
  </g>

  <g opacity="0.75">
    <path d="M248 536C285 512 322 502 360 502C390 502 410 514 429 528C455 549 492 564 543 564" stroke="#F54F6A" stroke-width="7" stroke-linecap="round"/>
    <path d="M1432 466C1456 442 1485 430 1514 430C1545 430 1567 444 1584 462C1604 483 1634 496 1680 496" stroke="#6BE6FF" stroke-width="7" stroke-linecap="round"/>
    <path d="M1735 430C1762 418 1788 419 1818 428C1848 438 1865 460 1872 488" stroke="#FFD058" stroke-width="6" stroke-linecap="round"/>
    <path d="M572 430C585 404 603 383 626 368C651 352 676 349 703 358" stroke="#FFBF63" stroke-width="6" stroke-linecap="round"/>
  </g>

  <g opacity="0.56">
    <path d="M1528 406C1520 389 1514 375 1510 362C1504 343 1491 327 1472 314" stroke="#79FFD7" stroke-width="5" stroke-linecap="round"/>
    <circle cx="1470" cy="312" r="11" fill="#79FFD7"/>
    <circle cx="1492" cy="335" r="10" fill="#79FFD7"/>
    <circle cx="1507" cy="359" r="9" fill="#79FFD7"/>
  </g>

  <rect y="730" width="1920" height="350" fill="url(#water)"/>

  <g opacity="0.56" filter="url(#blur12)">
    <rect x="66" y="760" width="90" height="190" fill="#8730C8"/>
    <rect x="294" y="744" width="150" height="220" fill="#FF9953"/>
    <rect x="547" y="728" width="88" height="252" fill="#FFBE63"/>
    <rect x="934" y="716" width="92" height="264" fill="#FFF7E9"/>
    <rect x="1458" y="730" width="108" height="252" fill="#6BE6FF"/>
    <rect x="1768" y="732" width="130" height="246" fill="#FFD65F"/>
  </g>

  <g opacity="0.82">
    <path d="M0 871C138 884 288 866 433 891C578 915 702 922 823 908C954 893 1039 845 1176 849C1313 853 1452 914 1602 914C1737 915 1832 884 1920 878V1080H0V871Z" fill="#07070B"/>
    <path d="M0 835C138 844 269 838 395 851C521 863 645 890 774 887C902 884 1009 846 1118 839C1248 831 1360 851 1472 871C1584 890 1709 893 1920 861" stroke="rgba(255,255,255,0.18)" stroke-width="2"/>
  </g>

  <g opacity="0.8">
    <ellipse cx="160" cy="890" rx="110" ry="12" fill="#B35DFF"/>
    <ellipse cx="350" cy="900" rx="190" ry="14" fill="#FF8B54"/>
    <ellipse cx="600" cy="914" rx="140" ry="12" fill="#FFCF73"/>
    <ellipse cx="979" cy="926" rx="170" ry="14" fill="#F5F7FF"/>
    <ellipse cx="1498" cy="930" rx="164" ry="13" fill="#74E0FF"/>
    <ellipse cx="1826" cy="920" rx="160" ry="13" fill="#FFD669"/>
  </g>

  <g opacity="0.2">
    <rect width="1920" height="1080" filter="url(#grain)"/>
  </g>
</svg>
