<svg width="1920" height="1080" viewBox="0 0 1920 1080" fill="none" xmlns="http://www.w3.org/2000/svg">
  <defs>
    <linearGradient id="room" x1="960" y1="0" x2="960" y2="1080" gradientUnits="userSpaceOnUse">
      <stop offset="0" stop-color="#110D10"/>
      <stop offset="0.34" stop-color="#171115"/>
      <stop offset="0.7" stop-color="#0E0B0E"/>
      <stop offset="1" stop-color="#060508"/>
    </linearGradient>
    <linearGradient id="wallWarm" x1="960" y1="120" x2="960" y2="760" gradientUnits="userSpaceOnUse">
      <stop offset="0" stop-color="#3C251A" stop-opacity="0.42"/>
      <stop offset="0.48" stop-color="#241815" stop-opacity="0.18"/>
      <stop offset="1" stop-color="#0A090C" stop-opacity="0"/>
    </linearGradient>
    <linearGradient id="counterFront" x1="960" y1="700" x2="960" y2="1080" gradientUnits="userSpaceOnUse">
      <stop offset="0" stop-color="#181114"/>
      <stop offset="0.4" stop-color="#0E0B0D"/>
      <stop offset="1" stop-color="#050407"/>
    </linearGradient>
    <linearGradient id="counterTop" x1="0" y1="0" x2="0" y2="1">
      <stop offset="0" stop-color="#5B3929"/>
      <stop offset="1" stop-color="#241611"/>
    </linearGradient>
    <linearGradient id="woodDark" x1="0" y1="0" x2="1" y2="1">
      <stop offset="0" stop-color="#2B1D16"/>
      <stop offset="1" stop-color="#171013"/>
    </linearGradient>
    <linearGradient id="frame" x1="0" y1="0" x2="1" y2="1">
      <stop offset="0" stop-color="#6B4A34"/>
      <stop offset="1" stop-color="#332118"/>
    </linearGradient>
    <radialGradient id="lampLeft" cx="0" cy="0" r="1" gradientUnits="userSpaceOnUse" gradientTransform="translate(360 160) rotate(90) scale(250 250)">
      <stop stop-color="#FFD38A" stop-opacity="0.5"/>
      <stop offset="0.45" stop-color="#F3A854" stop-opacity="0.14"/>
      <stop offset="1" stop-color="#100D10" stop-opacity="0"/>
    </radialGradient>
    <radialGradient id="lampCenter" cx="0" cy="0" r="1" gradientUnits="userSpaceOnUse" gradientTransform="translate(960 130) rotate(90) scale(320 340)">
      <stop stop-color="#FFE1A7" stop-opacity="0.42"/>
      <stop offset="0.5" stop-color="#DB9750" stop-opacity="0.16"/>
      <stop offset="1" stop-color="#100D10" stop-opacity="0"/>
    </radialGradient>
    <radialGradient id="lampRight" cx="0" cy="0" r="1" gradientUnits="userSpaceOnUse" gradientTransform="translate(1540 170) rotate(90) scale(250 250)">
      <stop stop-color="#FFD38A" stop-opacity="0.48"/>
      <stop offset="0.45" stop-color="#F3A854" stop-opacity="0.12"/>
      <stop offset="1" stop-color="#100D10" stop-opacity="0"/>
    </radialGradient>
    <radialGradient id="amberGlow" cx="0" cy="0" r="1" gradientUnits="userSpaceOnUse" gradientTransform="translate(530 620) rotate(90) scale(230 280)">
      <stop stop-color="#FFB665" stop-opacity="0.12"/>
      <stop offset="1" stop-color="#FFB665" stop-opacity="0"/>
    </radialGradient>
    <radialGradient id="rubyGlow" cx="0" cy="0" r="1" gradientUnits="userSpaceOnUse" gradientTransform="translate(1410 600) rotate(90) scale(250 300)">
      <stop stop-color="#C96B4B" stop-opacity="0.1"/>
      <stop offset="1" stop-color="#C96B4B" stop-opacity="0"/>
    </radialGradient>
    <filter id="blur18" x="-20%" y="-20%" width="140%" height="140%"><feGaussianBlur stdDeviation="18"/></filter>
    <filter id="blur8" x="-20%" y="-20%" width="140%" height="140%"><feGaussianBlur stdDeviation="8"/></filter>
    <filter id="grain">
      <feTurbulence type="fractalNoise" baseFrequency="0.82" numOctaves="2" seed="13" stitchTiles="stitch"/>
      <feColorMatrix type="saturate" values="0"/>
      <feComponentTransfer><feFuncA type="table" tableValues="0 0.028"/></feComponentTransfer>
    </filter>
  </defs>

  <rect width="1920" height="1080" fill="url(#room)"/>
  <rect width="1920" height="1080" fill="url(#lampLeft)"/>
  <rect width="1920" height="1080" fill="url(#lampCenter)"/>
  <rect width="1920" height="1080" fill="url(#lampRight)"/>
  <rect width="1920" height="1080" fill="url(#amberGlow)"/>
  <rect width="1920" height="1080" fill="url(#rubyGlow)"/>
  <rect width="1920" height="1080" fill="url(#wallWarm)"/>

  <g opacity="0.68">
    <rect x="180" y="170" width="1560" height="390" rx="34" fill="#0D0D11"/>
    <rect x="220" y="208" width="1480" height="314" rx="24" fill="#121116" stroke="rgba(255,225,184,0.04)" stroke-width="2"/>
    <rect x="250" y="236" width="1420" height="64" rx="18" fill="#19161A"/>
    <rect x="250" y="316" width="1420" height="84" rx="22" fill="#141317"/>
    <rect x="250" y="418" width="1420" height="78" rx="20" fill="#131216"/>
  </g>

  <g opacity="0.36">
    <rect x="286" y="252" width="320" height="30" rx="10" fill="url(#woodDark)"/>
    <rect x="646" y="252" width="300" height="30" rx="10" fill="url(#woodDark)"/>
    <rect x="984" y="252" width="290" height="30" rx="10" fill="url(#woodDark)"/>
    <rect x="1310" y="252" width="310" height="30" rx="10" fill="url(#woodDark)"/>

    <rect x="286" y="336" width="200" height="46" rx="14" fill="#18171C"/>
    <rect x="502" y="336" width="210" height="46" rx="14" fill="#18171C"/>
    <rect x="728" y="336" width="184" height="46" rx="14" fill="#18171C"/>
    <rect x="934" y="336" width="204" height="46" rx="14" fill="#18171C"/>
    <rect x="1158" y="336" width="190" height="46" rx="14" fill="#18171C"/>
    <rect x="1370" y="336" width="216" height="46" rx="14" fill="#18171C"/>

    <rect x="286" y="434" width="256" height="44" rx="14" fill="#17161A"/>
    <rect x="562" y="434" width="242" height="44" rx="14" fill="#17161A"/>
    <rect x="824" y="434" width="260" height="44" rx="14" fill="#17161A"/>
    <rect x="1104" y="434" width="238" height="44" rx="14" fill="#17161A"/>
    <rect x="1362" y="434" width="224" height="44" rx="14" fill="#17161A"/>
  </g>

  <g opacity="0.42">
    <rect x="274" y="218" width="20" height="286" rx="10" fill="#21171A"/>
    <rect x="618" y="218" width="18" height="286" rx="9" fill="#21171A"/>
    <rect x="952" y="218" width="18" height="286" rx="9" fill="#21171A"/>
    <rect x="1286" y="218" width="18" height="286" rx="9" fill="#21171A"/>
    <rect x="1618" y="218" width="20" height="286" rx="10" fill="#21171A"/>
  </g>

  <g opacity="0.26" filter="url(#blur8)">
    <ellipse cx="470" cy="312" rx="170" ry="36" fill="#FFB45F"/>
    <ellipse cx="950" cy="286" rx="240" ry="42" fill="#F0C47A"/>
    <ellipse cx="1430" cy="322" rx="180" ry="36" fill="#CC7D57"/>
  </g>

  <g opacity="0.5">
    <rect x="330" y="548" width="1240" height="18" rx="9" fill="url(#frame)"/>
    <rect x="302" y="562" width="1300" height="8" rx="4" fill="rgba(255,226,176,0.12)"/>
  </g>

  <g opacity="0.78">
    <path d="M0 708C180 696 358 704 532 720C714 736 854 760 1018 758C1200 756 1356 722 1548 708C1688 698 1808 698 1920 708V1080H0V708Z" fill="url(#counterFront)"/>
    <path d="M0 726C206 714 386 724 556 740C742 758 874 782 1026 780C1204 778 1360 746 1556 728C1700 714 1814 714 1920 724V766H0V726Z" fill="url(#counterTop)"/>
    <rect x="80" y="720" width="1760" height="16" rx="8" fill="rgba(255,214,154,0.12)" filter="url(#blur8)"/>
    <rect x="0" y="760" width="1920" height="320" fill="rgba(0,0,0,0.34)"/>
  </g>

  <g opacity="0.42">
    <path d="M188 1080V874C188 834 220 802 260 802H334C374 802 406 834 406 874V1080" fill="#09090C"/>
    <path d="M1510 1080V874C1510 834 1542 802 1582 802H1656C1696 802 1728 834 1728 874V1080" fill="#09090C"/>
    <rect x="178" y="790" width="236" height="18" rx="9" fill="#120F12"/>
    <rect x="1500" y="790" width="236" height="18" rx="9" fill="#120F12"/>
  </g>

  <g opacity="0.32">
    <rect x="72" y="286" width="116" height="162" rx="12" fill="#161418" stroke="rgba(255,219,171,0.08)" stroke-width="2"/>
    <rect x="1734" y="260" width="112" height="172" rx="12" fill="#161418" stroke="rgba(255,219,171,0.08)" stroke-width="2"/>
    <rect x="92" y="304" width="76" height="10" rx="5" fill="#272126"/>
    <rect x="92" y="326" width="64" height="8" rx="4" fill="#272126"/>
    <rect x="92" y="344" width="82" height="8" rx="4" fill="#272126"/>
    <rect x="1754" y="280" width="72" height="10" rx="5" fill="#272126"/>
    <rect x="1754" y="302" width="56" height="8" rx="4" fill="#272126"/>
    <rect x="1754" y="320" width="78" height="8" rx="4" fill="#272126"/>
  </g>

  <g opacity="0.22">
    <ellipse cx="310" cy="906" rx="136" ry="20" fill="#1A1214"/>
    <ellipse cx="1618" cy="914" rx="148" ry="22" fill="#171114"/>
    <ellipse cx="960" cy="816" rx="600" ry="34" fill="rgba(255,201,126,0.08)" filter="url(#blur18)"/>
  </g>

  <g opacity="0.26">
    <rect width="1920" height="1080" filter="url(#grain)"/>
  </g>
</svg>
